# xmcd
# Track frame offsets:
# 150
# 14665
# 29570
# 44685
# 57597
# 69850
# 86552
# 97910
# 113117
# 130442
# 145752
# 158367
# 173130
# 186235
# 198530
# 212260
# 227262
# 240192
#
# Disc length: 3401 seconds
# Revision: 0
# Processed by: cddbd v1.4PL0 Copyright (c) Steve Scherf et al.
# Submitted via: VisiTrax 2.9.2.167 - For more info visit www.synapsa.com
#
DISCID=ec0d4712
DTITLE=Sawyer Brown - Greatest Hits
DYEAR=1900
DGENRE=
TTITLE0=Some girls do
TTITLE1=Thank god for you
TTITLE2=All these years
TTITLE3=The dirt road
TTITLE4=This time
TTITLE5=The walk
TTITLE6=Trouble on the line
TTITLE7=Cafe on the corner
TTITLE8=I don't believe in goodbye
TTITLE9=The boys and me
TTITLE10=Step that step
TTITLE11=Betty's bein' bad
TTITLE12=The race is on
TTITLE13=When love comes callin'
TTITLE14=Leona
TTITLE15=Used to blue
TTITLE16=Out goin' cattin
TTITLE17=Shakin'
EXTD=
EXTT0=
EXTT1=
EXTT2=
EXTT3=
EXTT4=
EXTT5=
EXTT6=
EXTT7=
EXTT8=
EXTT9=
EXTT10=
EXTT11=
EXTT12=
EXTT13=
EXTT14=
EXTT15=
EXTT16=
EXTT17=
PLAYORDER=
